<?xml version="1.0" standalone="no"?>
<!DOCTYPE svg PUBLIC "-//W3C//DTD SVG 20010904//EN"
 "http://www.w3.org/TR/2001/REC-SVG-20010904/DTD/svg10.dtd">
<svg version="1.0" xmlns="http://www.w3.org/2000/svg"
 width="400.000000pt" height="400.000000pt" viewBox="0 0 400.000000 400.000000"
 preserveAspectRatio="xMidYMid meet">
<metadata>
Created by potrace 1.13, written by Peter Selinger 2001-2015
</metadata>
<g transform="translate(0.000000,400.000000) scale(0.100000,-0.100000)"
fill="#000000" stroke="none">
<path d="M1760 3820 c-797 -111 -1415 -694 -1565 -1478 -83 -432 3 -899 235
-1281 222 -365 572 -646 975 -780 585 -196 1199 -92 1703 287 l74 55 -98 99
c-54 54 -102 98 -106 98 -4 0 -38 -24 -77 -53 -441 -332 -1077 -385 -1581
-132 -262 132 -508 362 -650 611 -93 162 -164 371 -191 563 -17 121 -6 401 20
516 47 204 118 370 230 537 223 333 559 559 962 650 90 20 131 23 309 23 178
0 219 -3 310 -23 199 -45 379 -120 540 -226 46 -31 87 -55 91 -54 4 2 51 45
105 96 l99 94 -25 19 c-145 114 -359 231 -539 293 -189 66 -318 87 -551 91
-113 2 -234 0 -270 -5z"/>
<path d="M1890 3404 c-266 -32 -476 -106 -668 -236 -580 -391 -783 -1148 -476
-1772 71 -143 150 -252 269 -372 211 -212 458 -341 755 -395 97 -18 373 -18
465 0 268 51 508 166 687 330 l67 62 150 -147 151 -146 47 52 c260 290 420
640 464 1020 17 148 7 415 -21 554 -68 346 -256 703 -484 925 l-46 45 -147
-146 -148 -146 -60 50 c-245 202 -534 311 -855 322 -63 2 -131 2 -150 0z m258
-100 l61 -7 3 -135 3 -135 65 -17 c131 -34 292 -119 381 -200 l49 -45 -67 -70
c-38 -39 -94 -99 -126 -134 l-58 -62 -33 29 c-45 39 -133 89 -199 111 -378
130 -792 -104 -871 -494 l-13 -60 -68 -3 -68 -3 7 53 c21 154 103 315 226 439
100 101 192 158 322 202 87 29 102 31 243 32 168 0 236 -15 366 -80 l66 -34
34 35 c40 41 44 37 -86 98 -91 44 -172 69 -257 81 l-48 6 0 130 0 129 -99 0
c-293 0 -581 -121 -796 -334 -506 -504 -449 -1332 123 -1760 99 -75 232 -143
350 -180 116 -36 114 -37 110 35 l-3 61 -90 30 c-309 100 -562 356 -665 670
-20 64 -52 227 -45 238 2 3 87 3 191 0 l187 -5 17 -73 c29 -122 82 -215 180
-312 69 -69 101 -94 170 -127 113 -55 173 -68 305 -67 157 1 282 43 402 136
l53 40 130 -122 c71 -68 130 -126 130 -130 0 -20 -177 -149 -268 -194 -80 -40
-218 -83 -305 -95 -118 -16 -112 -18 -110 37 3 98 0 92 37 92 98 0 280 60 383
126 l58 37 -38 32 -38 33 -54 -32 c-125 -76 -327 -116 -476 -96 -321 44 -577
252 -673 548 l-18 52 -48 0 c-27 0 -51 -3 -53 -8 -7 -11 36 -140 68 -202 42
-82 82 -137 154 -214 140 -145 314 -237 514 -271 l37 -6 0 -199 c0 -163 -3
-200 -14 -200 -44 0 -206 36 -293 65 -188 63 -338 153 -484 293 -199 189 -329
426 -386 702 -23 116 -23 353 0 472 113 568 560 987 1132 1061 53 7 230 7 293
1z m294 -70 c141 -50 276 -129 413 -239 l37 -31 -45 -49 c-41 -46 -46 -48 -64
-35 -11 8 -49 37 -84 63 -82 62 -172 113 -263 148 l-71 27 -3 71 c-2 39 -1 71
2 71 3 0 38 -12 78 -26z m-502 -259 l0 -63 -52 -7 c-388 -49 -702 -346 -775
-735 l-17 -90 -69 0 -68 0 5 33 c21 128 29 163 50 224 91 268 293 493 550 614
45 21 116 47 159 59 77 21 195 40 210 33 4 -3 7 -33 7 -68z m947 -1923 c-165
-172 -496 -319 -759 -339 l-88 -6 0 65 0 66 97 12 c239 30 470 133 638 284
l50 44 47 -46 48 -46 -33 -34z"/>
</g>
</svg>
